PathFileType	4	(X/Y/Z)	..\data\2015002\dynamic\2015002_C4_04.trc
DataRate	CameraRate	NumFrames	NumMarkers	Units	OrigDataRate	OrigDataStartFrame	OrigNumFrames
100.000000	100.000000	4	52	mm	100.000000	126	168
Frame#	Time	L_IAS			L_IPS			R_IPS			R_IAS			L_FTC			L_FLE			L_FME			L_FAX			L_TTC			L_FAL			L_TAM			L_FCC			L_FM1			L_FM2			L_FM5			R_FTC			R_FLE			R_FME			R_FAX			R_TTC			R_FAL			R_TAM			R_FCC			R_FM1			R_FM2			R_FM5			CV7			TV10			SXS			SJN			L_SIA			L_SRS			L_SAA			L_SAE			L_HLE			L_HME			L_UOA			L_RSP			L_UHE			L_HM2			L_HM5			R_SIA			R_SRS			R_SAA			R_SAE			R_HLE			R_HME			R_UOA			R_RSP			R_UHE			R_HM2			R_HM5			
		X1	Y1	Z1	X2	Y2	Z2	X3	Y3	Z3	X4	Y4	Z4	X5	Y5	Z5	X6	Y6	Z6	X7	Y7	Z7	X8	Y8	Z8	X9	Y9	Z9	X10	Y10	Z10	X11	Y11	Z11	X12	Y12	Z12	X13	Y13	Z13	X14	Y14	Z14	X15	Y15	Z15	X16	Y16	Z16	X17	Y17	Z17	X18	Y18	Z18	X19	Y19	Z19	X20	Y20	Z20	X21	Y21	Z21	X22	Y22	Z22	X23	Y23	Z23	X24	Y24	Z24	X25	Y25	Z25	X26	Y26	Z26	X27	Y27	Z27	X28	Y28	Z28	X29	Y29	Z29	X30	Y30	Z30	X31	Y31	Z31	X32	Y32	Z32	X33	Y33	Z33	X34	Y34	Z34	X35	Y35	Z35	X36	Y36	Z36	X37	Y37	Z37	X38	Y38	Z38	X39	Y39	Z39	X40	Y40	Z40	X41	Y41	Z41	X42	Y42	Z42	X43	Y43	Z43	X44	Y44	Z44	X45	Y45	Z45	X46	Y46	Z46	X47	Y47	Z47	X48	Y48	Z48	X49	Y49	Z49	X50	Y50	Z50	X51	Y51	Z51	X52	Y52	Z52	

127	1.26	1318.4208984375	964.696716308594	-326.3962402343751	1130.945190429688	963.2739868164065	-233.5324249267579	1140.673217773438	960.6087646484377	-131.4254150390625	1330.51220703125	945.3721313476565	-72.49851989746095	1257.94580078125	888.5290527343752	-394.6279907226564	1407.695434570313	483.6549377441407	-352.0834960937501	1415.356811523438	489.2624511718751	-220.0265502929688	1395.957885742188	415.7366333007814	-345.1383972167969	1462.273681640625	416.8807678222657	-293.1076660156251	1402.813354492188	64.63281250000001	-274.5248107910157	1432.705810546875	90.03391265869142	-188.2483367919922	1351.65234375	17.12198829650879	-199.0634918212891	1562.814331054688	18.71672058105469	-201.2825317382813	1558.28466796875	36.75998687744141	-261.7443847656251	1509.093505859375	17.74287605285645	-313.2459106445313	1254.072998046875	848.424499511719	-6.577248573303224	1151.722290039063	455.5591125488282	-24.20943260192872	1190.305786132813	425.6602783203126	-147.2988433837891	1102.421630859375	423.3930053710939	-27.61822509765626	1155.160522460938	367.8742675781251	-58.879695892334	836.714050292969	199.0638427734376	-85.50283813476564	889.4619140625002	173.8372497558594	-161.7262115478516	790.1466064453127	199.2662811279297	-159.8303985595703	897.2686157226565	31.372709274292	-152.824447631836	907.0617675781252	47.6875114440918	-91.80273437500001	847.0928344726565	67.53327941894533	-42.59944152832032	1202.489501953125	1450.59521484375	-211.919662475586	1119.997680664063	1199.514892578125	-177.3662414550782	1370.456298828125	1147.452270507813	-209.7188262939454	1321.428466796875	1353.255249023438	-219.741683959961	1096.2412109375	1217.544677734375	-283.2044372558594	1131.170532226563	1374.931640625	-279.3249816894532	1167.244995117188	1373.4384765625	-375.2895507812501	1208.560668945313	1359.8125	-415.6011352539064	1100.998901367188	1064.124145507813	-421.2486572265626	1091.3994140625	1060.6650390625	-337.3156127929688	1065.009643554688	1040.437744140625	-398.9232482910157	1146.17431640625	803.389099121094	-414.9777832031251	1082.996337890625	819.820007324219	-459.4504699707032	1131.77392578125	699.9628295898439	-409.1619873046876	1046.267822265625	745.6348266601564	-453.8660278320314	1133.437255859375	1232.479614257813	-56.25782394409181	1160.458984375	1382.750610351563	-89.95409393310548	1230.251708984375	1392.192016601563	-18.80677223205567	1278.16064453125	1391.903442382813	-6.85631847381592	1316.8173828125	1084.15576171875	78.70352172851564	1274.63623046875	1056.353149414063	-0.8504617810249331	1290.47021484375	1021.350524902344	56.96505355834962	1507.236083984375	927.1207275390627	-25.77006530761719	1485.234008789063	894.6245117187502	41.67388916015626	1594.615600585938	872.7141723632815	-28.96136856079102	1528.307861328125	825.3492431640627	37.0600814819336	
128	1.27	1331.393920898438	966.9682617187502	-327.9018554687501	1143.628173828125	965.3337402343752	-234.8267059326172	1153.297607421875	961.9473876953127	-132.7183990478516	1343.3955078125	947.0455322265627	-74.32234191894533	1270.437133789063	890.259948730469	-396.1784973144532	1415.167602539063	483.605682373047	-352.2366333007813	1422.076782226563	489.3777465820314	-219.9637908935547	1402.298583984375	415.8967895507814	-345.1682739257813	1468.604248046875	416.1947326660157	-292.6848144531251	1403.60009765625	64.95804595947267	-274.1687316894532	1433.303955078125	89.95366668701173	-187.6450805664063	1352.06640625	17.2973804473877	-199.0871582031251	1563.109985351563	18.09741973876953	-200.6599578857422	1559.238525390625	36.51055526733399	-261.3563842773438	1509.560424804688	18.31046295166016	-313.4819946289063	1269.017211914063	848.6277465820315	-8.283224105834963	1176.368286132813	454.0217285156251	-23.12302398681641	1215.526489257813	424.0281982421876	-146.03564453125	1127.188110351563	423.0933837890626	-25.89707565307618	1179.066650390625	366.6425476074219	-57.83053588867189	854.868835449219	208.7863311767579	-85.36052703857423	907.0859375000002	181.0763397216797	-161.2036743164063	808.7806396484377	211.5957641601563	-160.0672454833985	906.030700683594	37.05357742309571	-151.2696990966797	916.987243652344	52.32581710815431	-90.8982391357422	858.730407714844	77.57543182373048	-42.21374893188477	1215.255859375	1452.545776367188	-213.4689636230469	1133.016723632813	1201.306884765625	-178.8202209472657	1383.54150390625	1149.728515625	-210.9429626464844	1334.257934570313	1355.361206054688	-221.1761779785157	1109.327392578125	1219.21533203125	-284.7871704101563	1143.978271484375	1376.659912109375	-280.7811279296876	1180.054809570313	1375.270141601563	-376.6564331054688	1221.375610351563	1361.744018554688	-417.0514526367189	1115.230102539063	1065.4326171875	-422.9554138183595	1105.794311523438	1061.849243164063	-339.0096740722657	1079.440063476563	1041.385986328125	-400.6749572753907	1162.97509765625	805.1259765625002	-416.7420043945314	1099.6748046875	820.9810791015627	-461.243621826172	1149.8662109375	701.5114135742189	-411.3533630371095	1063.853271484375	746.3850708007814	-456.0164489746095	1146.125610351563	1234.541748046875	-57.65961074829103	1173.13525390625	1384.811157226563	-91.5885467529297	1242.683349609375	1394.489501953125	-20.43818855285645	1290.50048828125	1394.154174804688	-8.291234016418459	1325.545776367188	1086.182006835938	77.94013977050783	1282.981323242188	1059.032592773438	-1.691869378089905	1297.962646484375	1023.786987304688	56.46792221069337	1512.896362304688	924.4360961914065	-25.09704017639161	1489.9560546875	892.8298950195315	42.57800292968751	1598.669189453125	867.4168090820315	-27.91529655456544	1531.052001953125	822.4840087890627	38.43768692016602	
129	1.28	1344.202514648438	969.043395996094	-329.2656555175782	1156.048950195313	967.466491699219	-236.2455596923829	1165.563354492188	963.3446044921877	-134.1873931884766	1355.900756835938	948.884704589844	-75.90705871582033	1282.70849609375	891.8657226562502	-397.6150512695314	1421.66357421875	483.3435668945314	-352.2829895019532	1427.999633789063	489.3438720703126	-219.737533569336	1407.6787109375	415.8921508789064	-345.0480651855469	1474.107543945313	415.4239501953126	-292.1911926269532	1404.221557617188	65.23813629150392	-273.7628479003907	1433.804565429688	89.87730407714845	-187.0440368652344	1352.465087890625	17.41797637939453	-199.003158569336	1563.378051757813	17.88469123840332	-200.1139221191407	1560.063110351563	36.52793502807618	-260.9804687500001	1509.974487304688	18.91966819763184	-313.6004028320313	1283.507568359375	849.0249633789065	-9.990076065063478	1201.492065429688	452.8065795898439	-22.22314453125	1241.182006835938	422.8867797851564	-145.0656433105469	1152.499755859375	423.0740356445314	-24.38211631774903	1203.683227539063	365.7037048339844	-57.115047454834	874.358093261719	218.2097625732422	-85.4108352661133	926.0696411132815	188.2133331298828	-160.850814819336	828.6722412109377	223.0496063232422	-160.4356231689453	917.3201904296877	43.12031936645509	-149.2941284179688	929.403503417969	57.54610443115236	-89.63984680175783	872.7151489257815	87.85911560058595	-41.56211471557618	1227.9267578125	1454.547485351563	-214.9821929931641	1145.74560546875	1203.217163085938	-180.4782409667969	1396.393798828125	1151.968872070313	-211.9888916015626	1346.96484375	1357.472534179688	-222.4295196533204	1122.337890625	1221.06005859375	-286.6988220214844	1156.783447265625	1378.533813476563	-282.3714294433594	1193.01025390625	1377.249633789063	-378.1043090820313	1234.421508789063	1363.785766601563	-418.4939880371095	1129.731323242188	1066.8125	-424.8400878906251	1120.34423828125	1063.131225585938	-340.9064331054688	1094.103149414063	1042.390869140625	-402.669403076172	1180.378173828125	807.028259277344	-418.6133117675782	1116.876098632813	822.157165527344	-463.0547790527345	1169.002685546875	703.2463378906251	-413.8309326171876	1082.218505859375	746.9880371093751	-458.1623840332032	1158.38427734375	1236.586059570313	-59.32785797119142	1185.523803710938	1386.895629882813	-93.29609680175783	1254.740234375	1396.738891601563	-22.01906967163086	1302.438232421875	1396.352416992188	-9.607452392578127	1334.079833984375	1088.214599609375	77.21799468994142	1291.086059570313	1061.685302734375	-2.459549427032471	1305.2236328125	1026.284912109375	56.04519653320314	1518.166137695313	921.6397094726565	-24.28802299499512	1494.269653320313	891.058288574219	43.68350982666016	1602.055908203125	861.7656860351565	-26.78273963928223	1533.173461914063	819.6128540039065	40.06072998046876	
130	1.29	1356.833862304688	970.930847167969	-330.4830017089844	1168.2373046875	969.644226074219	-237.7414703369141	1177.515869140625	964.7955322265627	-135.7874450683594	1368.062133789063	950.8673095703127	-77.2385940551758	1294.761840820313	893.3962402343752	-398.9342346191407	1427.32763671875	482.9383239746095	-352.2948913574219	1433.271850585938	489.1983947753907	-219.4549255371094	1412.242919921875	415.7694396972657	-344.8672790527344	1478.893310546875	414.5920410156251	-291.7323608398438	1404.676879882813	65.45022583007814	-273.3531799316407	1434.2060546875	89.7905731201172	-186.4918670654297	1352.79541015625	17.49537467956543	-198.8489074707032	1563.603149414063	17.93137550354004	-199.6671600341797	1560.741577148438	36.67904281616212	-260.6437072753907	1510.306762695313	19.4597454071045	-313.6406860351563	1297.522827148438	849.6360473632815	-11.68500804901123	1226.957641601563	452.0032958984376	-21.51195144653321	1267.129272460938	422.3220520019532	-144.372055053711	1178.16943359375	423.4180603027345	-23.11204910278321	1228.86865234375	365.1517333984376	-56.7108497619629	895.1060180664065	227.1173400878907	-85.60525512695314	946.3572998046877	195.0838775634766	-160.6303100585938	849.7051391601565	233.3590393066407	-160.8867645263672	931.318542480469	49.32189941406251	-146.9548950195313	944.461120605469	63.17037200927736	-88.05971527099611	889.1210937500002	98.01369476318362	-40.6511573791504	1240.503295898438	1456.572021484375	-216.4652557373047	1158.20263671875	1205.215698242188	-182.3079528808594	1409.01318359375	1154.135009765625	-212.8612060546876	1359.552612304688	1359.5546875	-223.5088653564454	1135.268798828125	1223.060668945313	-288.9261474609376	1169.585571289063	1380.529174804688	-284.0984191894532	1206.11083984375	1379.343139648438	-379.6432800292969	1247.703369140625	1365.897216796875	-419.9304809570314	1144.520385742188	1068.226684570313	-426.9055175781251	1135.033447265625	1064.476806640625	-343.0177001953126	1109.013671875	1043.422973632813	-404.9190979003907	1198.338989257813	809.0613403320315	-420.5810852050782	1134.571044921875	823.3245849609377	-464.8861083984376	1189.094604492188	705.1553344726564	-416.5618896484376	1101.310913085938	747.4399414062501	-460.2913513183595	1170.222778320313	1238.598999023438	-61.24676895141603	1197.640869140625	1388.98388671875	-95.06863403320314	1266.451782226563	1398.919189453125	-23.54705238342286	1314.006225585938	1398.469604492188	-10.81071186065674	1342.41748046875	1090.211303710938	76.53333282470705	1298.952392578125	1064.2578125	-3.16063952445984	1312.265502929688	1028.807250976563	55.6858253479004	1523.066528320313	918.7517700195315	-23.34251213073731	1498.211059570313	889.3255004882815	44.98674774169923	1604.802490234375	855.8450317382815	-25.55809020996094	1534.741333007813	816.776550292969	41.92642211914063	
